<svg width="31" height="31" viewBox="0 0 31 31" fill="none" xmlns="http://www.w3.org/2000/svg">
<circle cx="15.5" cy="15.5" r="15.5" fill="#DC2215"/>
<path fill-rule="evenodd" clip-rule="evenodd" d="M21.7114 11.2525C21.8903 11.4315 21.9909 11.6742 21.9909 11.9273C21.9909 12.1804 21.8903 12.4232 21.7114 12.6022L14.5567 19.7568C14.4622 19.8514 14.3499 19.9264 14.2264 19.9776C14.1028 20.0288 13.9704 20.0551 13.8367 20.0551C13.703 20.0551 13.5705 20.0288 13.447 19.9776C13.3235 19.9264 13.2112 19.8514 13.1166 19.7568L9.56192 16.2027C9.47075 16.1147 9.39803 16.0093 9.348 15.8929C9.29798 15.7764 9.27165 15.6512 9.27054 15.5244C9.26944 15.3977 9.29359 15.272 9.34159 15.1547C9.38958 15.0374 9.46046 14.9308 9.55009 14.8412C9.63971 14.7515 9.74629 14.6807 9.8636 14.6327C9.98091 14.5847 10.1066 14.5605 10.2333 14.5616C10.3601 14.5627 10.4853 14.5891 10.6018 14.6391C10.7183 14.6891 10.8236 14.7618 10.9116 14.853L13.8364 17.7777L20.361 11.2525C20.4497 11.1637 20.5549 11.0934 20.6708 11.0454C20.7866 10.9974 20.9108 10.9727 21.0362 10.9727C21.1616 10.9727 21.2858 10.9974 21.4016 11.0454C21.5175 11.0934 21.6227 11.1637 21.7114 11.2525Z" fill="white"/>
</svg>
